<svg id="visual" viewBox="0 0 980 720" width="980" height="720" xmlns="http://www.w3.org/2000/svg" xmlns:xlink="http://www.w3.org/1999/xlink" version="1.1"><g stroke-width="1" stroke-linejoin="bevel"><path d="M452.3 360L452.3 288L376.9 288Z" fill="#282828" stroke="#282828"></path><path d="M376.9 288L376.9 360L452.3 360Z" fill="#2b2b2b" stroke="#2b2b2b"></path><path d="M376.9 360L452.3 432L452.3 360Z" fill="#272727" stroke="#272727"></path><path d="M452.3 288L452.3 216L376.9 288Z" fill="#2d2d2d" stroke="#2d2d2d"></path><path d="M452.3 216L376.9 216L376.9 288Z" fill="#212121" stroke="#212121"></path><path d="M376.9 360L376.9 432L452.3 432Z" fill="#2b2b2b" stroke="#2b2b2b"></path><path d="M527.7 360L527.7 288L452.3 360Z" fill="#282828" stroke="#282828"></path><path d="M452.3 360L527.7 288L452.3 288Z" fill="#2a2a2a" stroke="#2a2a2a"></path><path d="M452.3 288L527.7 288L452.3 216Z" fill="#212121" stroke="#212121"></path><path d="M301.5 288L301.5 360L376.9 288Z" fill="#2d2d2d" stroke="#2d2d2d"></path><path d="M376.9 288L301.5 360L376.9 360Z" fill="#282828" stroke="#282828"></path><path d="M376.9 360L301.5 360L376.9 432Z" fill="#212121" stroke="#212121"></path><path d="M452.3 432L527.7 360L452.3 360Z" fill="#2d2d2d" stroke="#2d2d2d"></path><path d="M376.9 216L301.5 288L376.9 288Z" fill="#272727" stroke="#272727"></path><path d="M376.9 216L301.5 216L301.5 288Z" fill="#212121" stroke="#212121"></path><path d="M527.7 288L527.7 216L452.3 216Z" fill="#212121" stroke="#212121"></path><path d="M301.5 360L301.5 432L376.9 432Z" fill="#262626" stroke="#262626"></path><path d="M452.3 432L527.7 432L527.7 360Z" fill="#272727" stroke="#272727"></path><path d="M527.7 216L452.3 144L452.3 216Z" fill="#282828" stroke="#282828"></path><path d="M452.3 216L452.3 144L376.9 216Z" fill="#232323" stroke="#232323"></path><path d="M376.9 216L376.9 144L301.5 216Z" fill="#2b2b2b" stroke="#2b2b2b"></path><path d="M376.9 504L452.3 504L376.9 432Z" fill="#222222" stroke="#222222"></path><path d="M376.9 432L452.3 504L452.3 432Z" fill="#2b2b2b" stroke="#2b2b2b"></path><path d="M452.3 432L452.3 504L527.7 432Z" fill="#2a2a2a" stroke="#2a2a2a"></path><path d="M301.5 432L376.9 504L376.9 432Z" fill="#272727" stroke="#272727"></path><path d="M452.3 144L376.9 144L376.9 216Z" fill="#2a2a2a" stroke="#2a2a2a"></path><path d="M527.7 360L603.1 288L527.7 288Z" fill="#252525" stroke="#252525"></path><path d="M527.7 288L603.1 288L527.7 216Z" fill="#232323" stroke="#232323"></path><path d="M603.1 360L603.1 288L527.7 360Z" fill="#282828" stroke="#282828"></path><path d="M527.7 432L603.1 360L527.7 360Z" fill="#252525" stroke="#252525"></path><path d="M301.5 288L226.2 360L301.5 360Z" fill="#272727" stroke="#272727"></path><path d="M301.5 360L226.2 360L301.5 432Z" fill="#222222" stroke="#222222"></path><path d="M226.2 288L226.2 360L301.5 288Z" fill="#282828" stroke="#282828"></path><path d="M301.5 216L226.2 288L301.5 288Z" fill="#2a2a2a" stroke="#2a2a2a"></path><path d="M452.3 504L527.7 504L527.7 432Z" fill="#272727" stroke="#272727"></path><path d="M527.7 432L603.1 432L603.1 360Z" fill="#2a2a2a" stroke="#2a2a2a"></path><path d="M376.9 144L301.5 144L301.5 216Z" fill="#272727" stroke="#272727"></path><path d="M301.5 216L226.2 216L226.2 288Z" fill="#252525" stroke="#252525"></path><path d="M226.2 432L301.5 504L301.5 432Z" fill="#222222" stroke="#222222"></path><path d="M301.5 432L301.5 504L376.9 504Z" fill="#2e2e2e" stroke="#2e2e2e"></path><path d="M603.1 216L527.7 144L527.7 216Z" fill="#2b2b2b" stroke="#2b2b2b"></path><path d="M527.7 216L527.7 144L452.3 144Z" fill="#282828" stroke="#282828"></path><path d="M603.1 288L603.1 216L527.7 216Z" fill="#252525" stroke="#252525"></path><path d="M527.7 504L603.1 432L527.7 432Z" fill="#2a2a2a" stroke="#2a2a2a"></path><path d="M301.5 144L226.2 216L301.5 216Z" fill="#282828" stroke="#282828"></path><path d="M226.2 360L226.2 432L301.5 432Z" fill="#2d2d2d" stroke="#2d2d2d"></path><path d="M527.7 144L452.3 72L452.3 144Z" fill="#2a2a2a" stroke="#2a2a2a"></path><path d="M452.3 144L452.3 72L376.9 144Z" fill="#222222" stroke="#222222"></path><path d="M376.9 144L376.9 72L301.5 144Z" fill="#212121" stroke="#212121"></path><path d="M376.9 504L452.3 576L452.3 504Z" fill="#222222" stroke="#222222"></path><path d="M452.3 504L452.3 576L527.7 504Z" fill="#262626" stroke="#262626"></path><path d="M376.9 576L452.3 576L376.9 504Z" fill="#282828" stroke="#282828"></path><path d="M452.3 72L376.9 72L376.9 144Z" fill="#262626" stroke="#262626"></path><path d="M301.5 504L376.9 576L376.9 504Z" fill="#2a2a2a" stroke="#2a2a2a"></path><path d="M603.1 216L603.1 144L527.7 144Z" fill="#232323" stroke="#232323"></path><path d="M527.7 144L527.7 72L452.3 72Z" fill="#2e2e2e" stroke="#2e2e2e"></path><path d="M527.7 576L603.1 504L527.7 504Z" fill="#2a2a2a" stroke="#2a2a2a"></path><path d="M527.7 504L603.1 504L603.1 432Z" fill="#272727" stroke="#272727"></path><path d="M301.5 72L226.2 144L301.5 144Z" fill="#252525" stroke="#252525"></path><path d="M301.5 144L226.2 144L226.2 216Z" fill="#222222" stroke="#222222"></path><path d="M226.2 432L226.2 504L301.5 504Z" fill="#272727" stroke="#272727"></path><path d="M301.5 504L301.5 576L376.9 576Z" fill="#2a2a2a" stroke="#2a2a2a"></path><path d="M678.5 432L678.5 360L603.1 432Z" fill="#282828" stroke="#282828"></path><path d="M603.1 432L678.5 360L603.1 360Z" fill="#262626" stroke="#262626"></path><path d="M603.1 360L678.5 360L603.1 288Z" fill="#212121" stroke="#212121"></path><path d="M603.1 288L678.5 288L603.1 216Z" fill="#212121" stroke="#212121"></path><path d="M603.1 216L678.5 216L603.1 144Z" fill="#272727" stroke="#272727"></path><path d="M678.5 360L678.5 288L603.1 288Z" fill="#2d2d2d" stroke="#2d2d2d"></path><path d="M226.2 288L150.8 360L226.2 360Z" fill="#262626" stroke="#262626"></path><path d="M226.2 360L150.8 360L226.2 432Z" fill="#2a2a2a" stroke="#2a2a2a"></path><path d="M226.2 432L150.8 432L226.2 504Z" fill="#2e2e2e" stroke="#2e2e2e"></path><path d="M150.8 288L150.8 360L226.2 288Z" fill="#2a2a2a" stroke="#2a2a2a"></path><path d="M150.8 288L226.2 288L226.2 216Z" fill="#2b2b2b" stroke="#2b2b2b"></path><path d="M150.8 216L150.8 288L226.2 216Z" fill="#282828" stroke="#282828"></path><path d="M452.3 576L527.7 576L527.7 504Z" fill="#2e2e2e" stroke="#2e2e2e"></path><path d="M226.2 504L301.5 576L301.5 504Z" fill="#252525" stroke="#252525"></path><path d="M603.1 144L527.7 72L527.7 144Z" fill="#212121" stroke="#212121"></path><path d="M376.9 72L301.5 72L301.5 144Z" fill="#2b2b2b" stroke="#2b2b2b"></path><path d="M603.1 504L678.5 432L603.1 432Z" fill="#272727" stroke="#272727"></path><path d="M678.5 288L678.5 216L603.1 216Z" fill="#2a2a2a" stroke="#2a2a2a"></path><path d="M226.2 144L150.8 216L226.2 216Z" fill="#222222" stroke="#222222"></path><path d="M150.8 360L150.8 432L226.2 432Z" fill="#262626" stroke="#262626"></path><path d="M527.7 576L603.1 576L603.1 504Z" fill="#282828" stroke="#282828"></path><path d="M603.1 504L678.5 504L678.5 432Z" fill="#232323" stroke="#232323"></path><path d="M678.5 144L603.1 72L603.1 144Z" fill="#2d2d2d" stroke="#2d2d2d"></path><path d="M603.1 144L603.1 72L527.7 72Z" fill="#2a2a2a" stroke="#2a2a2a"></path><path d="M150.8 504L226.2 576L226.2 504Z" fill="#2b2b2b" stroke="#2b2b2b"></path><path d="M226.2 504L226.2 576L301.5 576Z" fill="#212121" stroke="#212121"></path><path d="M301.5 72L226.2 72L226.2 144Z" fill="#2d2d2d" stroke="#2d2d2d"></path><path d="M226.2 144L150.8 144L150.8 216Z" fill="#2a2a2a" stroke="#2a2a2a"></path><path d="M678.5 216L678.5 144L603.1 144Z" fill="#2b2b2b" stroke="#2b2b2b"></path><path d="M603.1 576L678.5 504L603.1 504Z" fill="#2b2b2b" stroke="#2b2b2b"></path><path d="M150.8 432L150.8 504L226.2 504Z" fill="#232323" stroke="#232323"></path><path d="M226.2 72L150.8 144L226.2 144Z" fill="#2d2d2d" stroke="#2d2d2d"></path><path d="M301.5 648L376.9 648L301.5 576Z" fill="#222222" stroke="#222222"></path><path d="M301.5 576L376.9 648L376.9 576Z" fill="#2d2d2d" stroke="#2d2d2d"></path><path d="M376.9 576L376.9 648L452.3 576Z" fill="#2b2b2b" stroke="#2b2b2b"></path><path d="M452.3 576L452.3 648L527.7 576Z" fill="#282828" stroke="#282828"></path><path d="M527.7 576L527.7 648L603.1 576Z" fill="#2a2a2a" stroke="#2a2a2a"></path><path d="M376.9 648L452.3 648L452.3 576Z" fill="#212121" stroke="#212121"></path><path d="M376.9 72L376.9 0L301.5 72Z" fill="#252525" stroke="#252525"></path><path d="M301.5 72L301.5 0L226.2 72Z" fill="#222222" stroke="#222222"></path><path d="M452.3 72L376.9 0L376.9 72Z" fill="#2e2e2e" stroke="#2e2e2e"></path><path d="M452.3 0L376.9 0L452.3 72Z" fill="#222222" stroke="#222222"></path><path d="M452.3 0L452.3 72L527.7 72Z" fill="#2d2d2d" stroke="#2d2d2d"></path><path d="M527.7 0L452.3 0L527.7 72Z" fill="#2d2d2d" stroke="#2d2d2d"></path><path d="M678.5 360L753.8 288L678.5 288Z" fill="#2b2b2b" stroke="#2b2b2b"></path><path d="M678.5 288L753.8 288L678.5 216Z" fill="#272727" stroke="#272727"></path><path d="M678.5 216L753.8 216L678.5 144Z" fill="#282828" stroke="#282828"></path><path d="M753.8 360L753.8 288L678.5 360Z" fill="#2e2e2e" stroke="#2e2e2e"></path><path d="M753.8 360L678.5 360L678.5 432Z" fill="#2a2a2a" stroke="#2a2a2a"></path><path d="M753.8 432L753.8 360L678.5 432Z" fill="#2b2b2b" stroke="#2b2b2b"></path><path d="M150.8 360L75.4 360L150.8 432Z" fill="#212121" stroke="#212121"></path><path d="M150.8 432L75.4 432L150.8 504Z" fill="#222222" stroke="#222222"></path><path d="M150.8 288L75.4 360L150.8 360Z" fill="#282828" stroke="#282828"></path><path d="M75.4 288L75.4 360L150.8 288Z" fill="#2b2b2b" stroke="#2b2b2b"></path><path d="M75.4 288L150.8 288L150.8 216Z" fill="#2b2b2b" stroke="#2b2b2b"></path><path d="M75.4 216L75.4 288L150.8 216Z" fill="#222222" stroke="#222222"></path><path d="M376.9 0L301.5 0L301.5 72Z" fill="#262626" stroke="#262626"></path><path d="M603.1 72L527.7 0L527.7 72Z" fill="#2e2e2e" stroke="#2e2e2e"></path><path d="M226.2 576L301.5 648L301.5 576Z" fill="#282828" stroke="#282828"></path><path d="M452.3 648L527.7 648L527.7 576Z" fill="#262626" stroke="#262626"></path><path d="M678.5 504L753.8 432L678.5 432Z" fill="#252525" stroke="#252525"></path><path d="M753.8 288L753.8 216L678.5 216Z" fill="#222222" stroke="#222222"></path><path d="M75.4 360L75.4 432L150.8 432Z" fill="#252525" stroke="#252525"></path><path d="M150.8 144L75.4 216L150.8 216Z" fill="#272727" stroke="#272727"></path><path d="M678.5 144L678.5 72L603.1 72Z" fill="#272727" stroke="#272727"></path><path d="M603.1 72L603.1 0L527.7 0Z" fill="#2b2b2b" stroke="#2b2b2b"></path><path d="M753.8 144L678.5 72L678.5 144Z" fill="#212121" stroke="#212121"></path><path d="M603.1 648L678.5 576L603.1 576Z" fill="#2e2e2e" stroke="#2e2e2e"></path><path d="M603.1 576L678.5 576L678.5 504Z" fill="#232323" stroke="#232323"></path><path d="M678.5 504L753.8 504L753.8 432Z" fill="#2b2b2b" stroke="#2b2b2b"></path><path d="M150.8 504L150.8 576L226.2 576Z" fill="#282828" stroke="#282828"></path><path d="M226.2 576L226.2 648L301.5 648Z" fill="#262626" stroke="#262626"></path><path d="M75.4 504L150.8 576L150.8 504Z" fill="#2d2d2d" stroke="#2d2d2d"></path><path d="M226.2 72L150.8 72L150.8 144Z" fill="#222222" stroke="#222222"></path><path d="M150.8 144L75.4 144L75.4 216Z" fill="#252525" stroke="#252525"></path><path d="M226.2 0L150.8 72L226.2 72Z" fill="#212121" stroke="#212121"></path><path d="M678.5 72L603.1 0L603.1 72Z" fill="#252525" stroke="#252525"></path><path d="M527.7 648L603.1 648L603.1 576Z" fill="#252525" stroke="#252525"></path><path d="M150.8 576L226.2 648L226.2 576Z" fill="#222222" stroke="#222222"></path><path d="M301.5 0L226.2 0L226.2 72Z" fill="#222222" stroke="#222222"></path><path d="M678.5 576L753.8 504L678.5 504Z" fill="#2d2d2d" stroke="#2d2d2d"></path><path d="M753.8 216L753.8 144L678.5 144Z" fill="#262626" stroke="#262626"></path><path d="M150.8 72L75.4 144L150.8 144Z" fill="#272727" stroke="#272727"></path><path d="M75.4 432L75.4 504L150.8 504Z" fill="#282828" stroke="#282828"></path><path d="M301.5 720L376.9 720L301.5 648Z" fill="#262626" stroke="#262626"></path><path d="M301.5 648L376.9 720L376.9 648Z" fill="#2e2e2e" stroke="#2e2e2e"></path><path d="M376.9 648L376.9 720L452.3 648Z" fill="#272727" stroke="#272727"></path><path d="M452.3 648L452.3 720L527.7 648Z" fill="#212121" stroke="#212121"></path><path d="M527.7 648L527.7 720L603.1 648Z" fill="#222222" stroke="#222222"></path><path d="M376.9 720L452.3 720L452.3 648Z" fill="#282828" stroke="#282828"></path><path d="M226.2 648L301.5 720L301.5 648Z" fill="#232323" stroke="#232323"></path><path d="M452.3 720L527.7 720L527.7 648Z" fill="#252525" stroke="#252525"></path><path d="M753.8 360L829.2 360L753.8 288Z" fill="#2e2e2e" stroke="#2e2e2e"></path><path d="M753.8 288L829.2 288L753.8 216Z" fill="#272727" stroke="#272727"></path><path d="M753.8 216L829.2 216L753.8 144Z" fill="#272727" stroke="#272727"></path><path d="M753.8 432L829.2 360L753.8 360Z" fill="#2e2e2e" stroke="#2e2e2e"></path><path d="M829.2 432L829.2 360L753.8 432Z" fill="#252525" stroke="#252525"></path><path d="M0 216L0 288L75.4 216Z" fill="#232323" stroke="#232323"></path><path d="M75.4 216L0 288L75.4 288Z" fill="#282828" stroke="#282828"></path><path d="M75.4 288L0 288L75.4 360Z" fill="#252525" stroke="#252525"></path><path d="M75.4 360L0 360L75.4 432Z" fill="#2b2b2b" stroke="#2b2b2b"></path><path d="M75.4 432L0 432L75.4 504Z" fill="#222222" stroke="#222222"></path><path d="M829.2 360L829.2 288L753.8 288Z" fill="#262626" stroke="#262626"></path><path d="M0 288L0 360L75.4 360Z" fill="#282828" stroke="#282828"></path><path d="M753.8 72L678.5 0L678.5 72Z" fill="#2e2e2e" stroke="#2e2e2e"></path><path d="M678.5 72L678.5 0L603.1 0Z" fill="#222222" stroke="#222222"></path><path d="M753.8 72L678.5 72L753.8 144Z" fill="#282828" stroke="#282828"></path><path d="M603.1 648L678.5 648L678.5 576Z" fill="#2a2a2a" stroke="#2a2a2a"></path><path d="M678.5 576L753.8 576L753.8 504Z" fill="#2a2a2a" stroke="#2a2a2a"></path><path d="M753.8 504L829.2 432L753.8 432Z" fill="#2b2b2b" stroke="#2b2b2b"></path><path d="M603.1 720L678.5 648L603.1 648Z" fill="#282828" stroke="#282828"></path><path d="M75.4 576L150.8 648L150.8 576Z" fill="#2e2e2e" stroke="#2e2e2e"></path><path d="M150.8 576L150.8 648L226.2 648Z" fill="#262626" stroke="#262626"></path><path d="M226.2 648L226.2 720L301.5 720Z" fill="#252525" stroke="#252525"></path><path d="M150.8 72L75.4 72L75.4 144Z" fill="#252525" stroke="#252525"></path><path d="M226.2 0L150.8 0L150.8 72Z" fill="#2e2e2e" stroke="#2e2e2e"></path><path d="M678.5 648L753.8 576L678.5 576Z" fill="#2a2a2a" stroke="#2a2a2a"></path><path d="M829.2 144L753.8 72L753.8 144Z" fill="#212121" stroke="#212121"></path><path d="M0 504L75.4 576L75.4 504Z" fill="#212121" stroke="#212121"></path><path d="M75.4 504L75.4 576L150.8 576Z" fill="#262626" stroke="#262626"></path><path d="M150.8 0L75.4 72L150.8 72Z" fill="#282828" stroke="#282828"></path><path d="M75.4 144L0 216L75.4 216Z" fill="#2e2e2e" stroke="#2e2e2e"></path><path d="M829.2 504L829.2 432L753.8 504Z" fill="#2b2b2b" stroke="#2b2b2b"></path><path d="M0 360L0 432L75.4 432Z" fill="#2e2e2e" stroke="#2e2e2e"></path><path d="M0 144L0 216L75.4 144Z" fill="#222222" stroke="#222222"></path><path d="M829.2 288L829.2 216L753.8 216Z" fill="#262626" stroke="#262626"></path><path d="M527.7 720L603.1 720L603.1 648Z" fill="#2a2a2a" stroke="#2a2a2a"></path><path d="M150.8 648L226.2 720L226.2 648Z" fill="#222222" stroke="#222222"></path><path d="M829.2 576L829.2 504L753.8 576Z" fill="#212121" stroke="#212121"></path><path d="M753.8 576L829.2 504L753.8 504Z" fill="#2e2e2e" stroke="#2e2e2e"></path><path d="M753.8 648L753.8 576L678.5 648Z" fill="#2e2e2e" stroke="#2e2e2e"></path><path d="M0 432L0 504L75.4 504Z" fill="#2e2e2e" stroke="#2e2e2e"></path><path d="M75.4 72L0 144L75.4 144Z" fill="#2e2e2e" stroke="#2e2e2e"></path><path d="M829.2 216L829.2 144L753.8 144Z" fill="#2a2a2a" stroke="#2a2a2a"></path><path d="M753.8 72L753.8 0L678.5 0Z" fill="#272727" stroke="#272727"></path><path d="M829.2 72L753.8 0L753.8 72Z" fill="#2e2e2e" stroke="#2e2e2e"></path><path d="M678.5 720L753.8 648L678.5 648Z" fill="#232323" stroke="#232323"></path><path d="M75.4 576L75.4 648L150.8 648Z" fill="#222222" stroke="#222222"></path><path d="M150.8 648L150.8 720L226.2 720Z" fill="#232323" stroke="#232323"></path><path d="M0 576L75.4 648L75.4 576Z" fill="#222222" stroke="#222222"></path><path d="M150.8 0L75.4 0L75.4 72Z" fill="#262626" stroke="#262626"></path><path d="M75.4 72L0 72L0 144Z" fill="#272727" stroke="#272727"></path><path d="M603.1 720L678.5 720L678.5 648Z" fill="#2a2a2a" stroke="#2a2a2a"></path><path d="M75.4 648L150.8 720L150.8 648Z" fill="#2d2d2d" stroke="#2d2d2d"></path><path d="M75.4 0L0 72L75.4 72Z" fill="#222222" stroke="#222222"></path><path d="M0 504L0 576L75.4 576Z" fill="#2d2d2d" stroke="#2d2d2d"></path><path d="M829.2 144L829.2 72L753.8 72Z" fill="#272727" stroke="#272727"></path><path d="M753.8 648L829.2 576L753.8 576Z" fill="#272727" stroke="#272727"></path><path d="M829.2 648L829.2 576L753.8 648Z" fill="#2b2b2b" stroke="#2b2b2b"></path><path d="M829.2 360L904.6 288L829.2 288Z" fill="#2d2d2d" stroke="#2d2d2d"></path><path d="M829.2 288L904.6 288L829.2 216Z" fill="#222222" stroke="#222222"></path><path d="M829.2 216L904.6 216L829.2 144Z" fill="#272727" stroke="#272727"></path><path d="M829.2 144L904.6 144L829.2 72Z" fill="#262626" stroke="#262626"></path><path d="M904.6 360L904.6 288L829.2 360Z" fill="#2e2e2e" stroke="#2e2e2e"></path><path d="M904.6 360L829.2 360L829.2 432Z" fill="#2d2d2d" stroke="#2d2d2d"></path><path d="M904.6 360L829.2 432L904.6 432Z" fill="#252525" stroke="#252525"></path><path d="M904.6 432L829.2 432L829.2 504Z" fill="#232323" stroke="#232323"></path><path d="M904.6 288L904.6 216L829.2 216Z" fill="#2e2e2e" stroke="#2e2e2e"></path><path d="M904.6 504L904.6 432L829.2 504Z" fill="#212121" stroke="#212121"></path><path d="M678.5 720L753.8 720L753.8 648Z" fill="#2e2e2e" stroke="#2e2e2e"></path><path d="M0 648L75.4 720L75.4 648Z" fill="#272727" stroke="#272727"></path><path d="M75.4 648L75.4 720L150.8 720Z" fill="#282828" stroke="#282828"></path><path d="M904.6 576L904.6 504L829.2 576Z" fill="#222222" stroke="#222222"></path><path d="M829.2 576L904.6 504L829.2 504Z" fill="#2b2b2b" stroke="#2b2b2b"></path><path d="M904.6 216L904.6 144L829.2 144Z" fill="#2b2b2b" stroke="#2b2b2b"></path><path d="M753.8 720L829.2 648L753.8 648Z" fill="#212121" stroke="#212121"></path><path d="M75.4 0L0 0L0 72Z" fill="#282828" stroke="#282828"></path><path d="M0 576L0 648L75.4 648Z" fill="#2b2b2b" stroke="#2b2b2b"></path><path d="M904.6 72L829.2 0L829.2 72Z" fill="#232323" stroke="#232323"></path><path d="M829.2 72L829.2 0L753.8 0Z" fill="#262626" stroke="#262626"></path><path d="M829.2 648L904.6 576L829.2 576Z" fill="#2d2d2d" stroke="#2d2d2d"></path><path d="M904.6 144L904.6 72L829.2 72Z" fill="#222222" stroke="#222222"></path><path d="M904.6 360L980 360L904.6 288Z" fill="#282828" stroke="#282828"></path><path d="M904.6 288L980 288L904.6 216Z" fill="#222222" stroke="#222222"></path><path d="M904.6 216L980 216L904.6 144Z" fill="#2a2a2a" stroke="#2a2a2a"></path><path d="M904.6 144L980 144L904.6 72Z" fill="#262626" stroke="#262626"></path><path d="M904.6 432L980 360L904.6 360Z" fill="#2d2d2d" stroke="#2d2d2d"></path><path d="M980 432L980 360L904.6 432Z" fill="#222222" stroke="#222222"></path><path d="M980 432L904.6 432L904.6 504Z" fill="#262626" stroke="#262626"></path><path d="M980 360L980 288L904.6 288Z" fill="#232323" stroke="#232323"></path><path d="M0 648L0 720L75.4 720Z" fill="#252525" stroke="#252525"></path><path d="M753.8 720L829.2 720L829.2 648Z" fill="#2b2b2b" stroke="#2b2b2b"></path><path d="M829.2 648L904.6 648L904.6 576Z" fill="#272727" stroke="#272727"></path><path d="M980 504L980 432L904.6 504Z" fill="#262626" stroke="#262626"></path><path d="M980 288L980 216L904.6 216Z" fill="#2e2e2e" stroke="#2e2e2e"></path><path d="M829.2 720L904.6 648L829.2 648Z" fill="#252525" stroke="#252525"></path><path d="M904.6 576L980 504L904.6 504Z" fill="#2b2b2b" stroke="#2b2b2b"></path><path d="M980 72L904.6 0L904.6 72Z" fill="#2d2d2d" stroke="#2d2d2d"></path><path d="M904.6 72L904.6 0L829.2 0Z" fill="#212121" stroke="#212121"></path><path d="M980 576L980 504L904.6 576Z" fill="#282828" stroke="#282828"></path><path d="M980 216L980 144L904.6 144Z" fill="#2d2d2d" stroke="#2d2d2d"></path><path d="M904.6 648L980 576L904.6 576Z" fill="#2d2d2d" stroke="#2d2d2d"></path><path d="M980 144L980 72L904.6 72Z" fill="#212121" stroke="#212121"></path><path d="M829.2 720L904.6 720L904.6 648Z" fill="#2a2a2a" stroke="#2a2a2a"></path><path d="M904.6 648L980 648L980 576Z" fill="#272727" stroke="#272727"></path><path d="M904.6 720L980 648L904.6 648Z" fill="#232323" stroke="#232323"></path><path d="M980 72L980 0L904.6 0Z" fill="#2e2e2e" stroke="#2e2e2e"></path><path d="M904.6 720L980 720L980 648Z" fill="#2a2a2a" stroke="#2a2a2a"></path></g></svg>