<svg id="visual" viewBox="0 0 1280 720" width="1280" height="720" xmlns="http://www.w3.org/2000/svg" xmlns:xlink="http://www.w3.org/1999/xlink" version="1.1"><g stroke-width="1" stroke-linejoin="bevel"><path d="M590.8 360L689.2 270L590.8 270Z" fill="#2b2b2b" stroke="#2b2b2b"></path><path d="M590.8 360L689.2 360L689.2 270Z" fill="#262626" stroke="#262626"></path><path d="M689.2 270L689.2 180L590.8 270Z" fill="#282828" stroke="#282828"></path><path d="M590.8 360L689.2 450L689.2 360Z" fill="#2b2b2b" stroke="#2b2b2b"></path><path d="M689.2 180L590.8 180L590.8 270Z" fill="#212121" stroke="#212121"></path><path d="M590.8 360L590.8 450L689.2 450Z" fill="#252525" stroke="#252525"></path><path d="M689.2 450L787.7 360L689.2 360Z" fill="#212121" stroke="#212121"></path><path d="M689.2 360L787.7 360L689.2 270Z" fill="#262626" stroke="#262626"></path><path d="M689.2 270L787.7 270L689.2 180Z" fill="#2d2d2d" stroke="#2d2d2d"></path><path d="M787.7 360L787.7 270L689.2 270Z" fill="#272727" stroke="#272727"></path><path d="M590.8 180L492.3 270L590.8 270Z" fill="#262626" stroke="#262626"></path><path d="M590.8 270L492.3 270L590.8 360Z" fill="#212121" stroke="#212121"></path><path d="M590.8 360L492.3 360L590.8 450Z" fill="#252525" stroke="#252525"></path><path d="M492.3 270L492.3 360L590.8 360Z" fill="#282828" stroke="#282828"></path><path d="M689.2 450L787.7 450L787.7 360Z" fill="#262626" stroke="#262626"></path><path d="M787.7 270L787.7 180L689.2 180Z" fill="#2a2a2a" stroke="#2a2a2a"></path><path d="M492.3 360L492.3 450L590.8 450Z" fill="#2b2b2b" stroke="#2b2b2b"></path><path d="M590.8 180L492.3 180L492.3 270Z" fill="#2d2d2d" stroke="#2d2d2d"></path><path d="M590.8 450L689.2 540L689.2 450Z" fill="#272727" stroke="#272727"></path><path d="M689.2 450L689.2 540L787.7 450Z" fill="#222222" stroke="#222222"></path><path d="M590.8 540L689.2 540L590.8 450Z" fill="#2d2d2d" stroke="#2d2d2d"></path><path d="M787.7 180L689.2 90L689.2 180Z" fill="#2d2d2d" stroke="#2d2d2d"></path><path d="M689.2 180L689.2 90L590.8 180Z" fill="#262626" stroke="#262626"></path><path d="M590.8 180L590.8 90L492.3 180Z" fill="#262626" stroke="#262626"></path><path d="M492.3 450L590.8 540L590.8 450Z" fill="#2a2a2a" stroke="#2a2a2a"></path><path d="M689.2 90L590.8 90L590.8 180Z" fill="#262626" stroke="#262626"></path><path d="M787.7 450L886.2 360L787.7 360Z" fill="#2d2d2d" stroke="#2d2d2d"></path><path d="M787.7 360L886.2 360L787.7 270Z" fill="#2d2d2d" stroke="#2d2d2d"></path><path d="M787.7 270L886.2 270L787.7 180Z" fill="#2d2d2d" stroke="#2d2d2d"></path><path d="M886.2 360L886.2 270L787.7 270Z" fill="#212121" stroke="#212121"></path><path d="M492.3 180L393.8 270L492.3 270Z" fill="#252525" stroke="#252525"></path><path d="M492.3 270L393.8 270L492.3 360Z" fill="#282828" stroke="#282828"></path><path d="M492.3 360L393.8 360L492.3 450Z" fill="#262626" stroke="#262626"></path><path d="M393.8 270L393.8 360L492.3 360Z" fill="#272727" stroke="#272727"></path><path d="M886.2 180L787.7 90L787.7 180Z" fill="#232323" stroke="#232323"></path><path d="M787.7 180L787.7 90L689.2 90Z" fill="#222222" stroke="#222222"></path><path d="M689.2 540L787.7 540L787.7 450Z" fill="#2d2d2d" stroke="#2d2d2d"></path><path d="M787.7 450L886.2 450L886.2 360Z" fill="#212121" stroke="#212121"></path><path d="M393.8 450L492.3 540L492.3 450Z" fill="#222222" stroke="#222222"></path><path d="M492.3 450L492.3 540L590.8 540Z" fill="#272727" stroke="#272727"></path><path d="M590.8 90L492.3 90L492.3 180Z" fill="#272727" stroke="#272727"></path><path d="M492.3 180L393.8 180L393.8 270Z" fill="#2b2b2b" stroke="#2b2b2b"></path><path d="M787.7 540L886.2 450L787.7 450Z" fill="#252525" stroke="#252525"></path><path d="M886.2 270L886.2 180L787.7 180Z" fill="#2b2b2b" stroke="#2b2b2b"></path><path d="M393.8 360L393.8 450L492.3 450Z" fill="#2d2d2d" stroke="#2d2d2d"></path><path d="M492.3 90L393.8 180L492.3 180Z" fill="#2a2a2a" stroke="#2a2a2a"></path><path d="M787.7 90L689.2 0L689.2 90Z" fill="#2e2e2e" stroke="#2e2e2e"></path><path d="M689.2 90L689.2 0L590.8 90Z" fill="#222222" stroke="#222222"></path><path d="M590.8 90L590.8 0L492.3 90Z" fill="#2a2a2a" stroke="#2a2a2a"></path><path d="M590.8 540L689.2 630L689.2 540Z" fill="#272727" stroke="#272727"></path><path d="M689.2 540L689.2 630L787.7 540Z" fill="#272727" stroke="#272727"></path><path d="M590.8 630L689.2 630L590.8 540Z" fill="#272727" stroke="#272727"></path><path d="M492.3 540L590.8 630L590.8 540Z" fill="#212121" stroke="#212121"></path><path d="M689.2 0L590.8 0L590.8 90Z" fill="#2a2a2a" stroke="#2a2a2a"></path><path d="M886.2 180L886.2 90L787.7 90Z" fill="#212121" stroke="#212121"></path><path d="M787.7 90L787.7 0L689.2 0Z" fill="#252525" stroke="#252525"></path><path d="M787.7 630L886.2 540L787.7 540Z" fill="#2a2a2a" stroke="#2a2a2a"></path><path d="M787.7 540L886.2 540L886.2 450Z" fill="#232323" stroke="#232323"></path><path d="M393.8 450L393.8 540L492.3 540Z" fill="#232323" stroke="#232323"></path><path d="M492.3 540L492.3 630L590.8 630Z" fill="#2e2e2e" stroke="#2e2e2e"></path><path d="M492.3 0L393.8 90L492.3 90Z" fill="#2e2e2e" stroke="#2e2e2e"></path><path d="M492.3 90L393.8 90L393.8 180Z" fill="#212121" stroke="#212121"></path><path d="M886.2 450L984.6 360L886.2 360Z" fill="#222222" stroke="#222222"></path><path d="M886.2 360L984.6 360L886.2 270Z" fill="#222222" stroke="#222222"></path><path d="M886.2 270L984.6 270L886.2 180Z" fill="#232323" stroke="#232323"></path><path d="M886.2 180L984.6 180L886.2 90Z" fill="#282828" stroke="#282828"></path><path d="M984.6 450L984.6 360L886.2 450Z" fill="#262626" stroke="#262626"></path><path d="M984.6 360L984.6 270L886.2 270Z" fill="#232323" stroke="#232323"></path><path d="M393.8 180L295.4 270L393.8 270Z" fill="#232323" stroke="#232323"></path><path d="M393.8 270L295.4 270L393.8 360Z" fill="#252525" stroke="#252525"></path><path d="M393.8 360L295.4 360L393.8 450Z" fill="#222222" stroke="#222222"></path><path d="M393.8 450L295.4 450L393.8 540Z" fill="#222222" stroke="#222222"></path><path d="M295.4 180L295.4 270L393.8 180Z" fill="#2b2b2b" stroke="#2b2b2b"></path><path d="M295.4 270L295.4 360L393.8 360Z" fill="#2d2d2d" stroke="#2d2d2d"></path><path d="M689.2 630L787.7 630L787.7 540Z" fill="#212121" stroke="#212121"></path><path d="M886.2 90L787.7 0L787.7 90Z" fill="#2d2d2d" stroke="#2d2d2d"></path><path d="M393.8 540L492.3 630L492.3 540Z" fill="#252525" stroke="#252525"></path><path d="M590.8 0L492.3 0L492.3 90Z" fill="#212121" stroke="#212121"></path><path d="M984.6 270L984.6 180L886.2 180Z" fill="#232323" stroke="#232323"></path><path d="M886.2 540L984.6 450L886.2 450Z" fill="#2e2e2e" stroke="#2e2e2e"></path><path d="M295.4 360L295.4 450L393.8 450Z" fill="#2e2e2e" stroke="#2e2e2e"></path><path d="M393.8 90L295.4 180L393.8 180Z" fill="#252525" stroke="#252525"></path><path d="M984.6 90L886.2 0L886.2 90Z" fill="#252525" stroke="#252525"></path><path d="M886.2 90L886.2 0L787.7 0Z" fill="#2d2d2d" stroke="#2d2d2d"></path><path d="M787.7 630L886.2 630L886.2 540Z" fill="#232323" stroke="#232323"></path><path d="M886.2 540L984.6 540L984.6 450Z" fill="#2e2e2e" stroke="#2e2e2e"></path><path d="M295.4 540L393.8 630L393.8 540Z" fill="#252525" stroke="#252525"></path><path d="M393.8 540L393.8 630L492.3 630Z" fill="#212121" stroke="#212121"></path><path d="M492.3 0L393.8 0L393.8 90Z" fill="#2a2a2a" stroke="#2a2a2a"></path><path d="M393.8 90L295.4 90L295.4 180Z" fill="#2b2b2b" stroke="#2b2b2b"></path><path d="M689.2 630L689.2 720L787.7 630Z" fill="#282828" stroke="#282828"></path><path d="M787.7 630L787.7 720L886.2 630Z" fill="#2e2e2e" stroke="#2e2e2e"></path><path d="M590.8 630L689.2 720L689.2 630Z" fill="#232323" stroke="#232323"></path><path d="M590.8 720L689.2 720L590.8 630Z" fill="#272727" stroke="#272727"></path><path d="M590.8 720L590.8 630L492.3 630Z" fill="#2d2d2d" stroke="#2d2d2d"></path><path d="M492.3 720L590.8 720L492.3 630Z" fill="#2b2b2b" stroke="#2b2b2b"></path><path d="M984.6 180L984.6 90L886.2 90Z" fill="#222222" stroke="#222222"></path><path d="M886.2 630L984.6 540L886.2 540Z" fill="#2d2d2d" stroke="#2d2d2d"></path><path d="M295.4 450L295.4 540L393.8 540Z" fill="#2d2d2d" stroke="#2d2d2d"></path><path d="M393.8 0L295.4 90L393.8 90Z" fill="#252525" stroke="#252525"></path><path d="M689.2 720L787.7 720L787.7 630Z" fill="#2d2d2d" stroke="#2d2d2d"></path><path d="M393.8 630L492.3 720L492.3 630Z" fill="#2e2e2e" stroke="#2e2e2e"></path><path d="M984.6 270L1083.1 270L984.6 180Z" fill="#222222" stroke="#222222"></path><path d="M984.6 180L1083.1 180L984.6 90Z" fill="#222222" stroke="#222222"></path><path d="M984.6 360L1083.1 270L984.6 270Z" fill="#2a2a2a" stroke="#2a2a2a"></path><path d="M1083.1 360L1083.1 270L984.6 360Z" fill="#222222" stroke="#222222"></path><path d="M1083.1 360L984.6 360L984.6 450Z" fill="#2e2e2e" stroke="#2e2e2e"></path><path d="M1083.1 450L1083.1 360L984.6 450Z" fill="#2a2a2a" stroke="#2a2a2a"></path><path d="M295.4 360L196.9 360L295.4 450Z" fill="#2b2b2b" stroke="#2b2b2b"></path><path d="M295.4 450L196.9 450L295.4 540Z" fill="#2b2b2b" stroke="#2b2b2b"></path><path d="M295.4 270L196.9 360L295.4 360Z" fill="#2e2e2e" stroke="#2e2e2e"></path><path d="M196.9 270L196.9 360L295.4 270Z" fill="#212121" stroke="#212121"></path><path d="M196.9 270L295.4 270L295.4 180Z" fill="#2a2a2a" stroke="#2a2a2a"></path><path d="M196.9 180L196.9 270L295.4 180Z" fill="#212121" stroke="#212121"></path><path d="M984.6 540L1083.1 450L984.6 450Z" fill="#262626" stroke="#262626"></path><path d="M1083.1 270L1083.1 180L984.6 180Z" fill="#252525" stroke="#252525"></path><path d="M196.9 360L196.9 450L295.4 450Z" fill="#232323" stroke="#232323"></path><path d="M295.4 90L196.9 180L295.4 180Z" fill="#282828" stroke="#282828"></path><path d="M1083.1 90L984.6 0L984.6 90Z" fill="#222222" stroke="#222222"></path><path d="M984.6 90L984.6 0L886.2 0Z" fill="#2b2b2b" stroke="#2b2b2b"></path><path d="M886.2 630L984.6 630L984.6 540Z" fill="#252525" stroke="#252525"></path><path d="M984.6 540L1083.1 540L1083.1 450Z" fill="#262626" stroke="#262626"></path><path d="M886.2 720L984.6 630L886.2 630Z" fill="#2a2a2a" stroke="#2a2a2a"></path><path d="M295.4 540L295.4 630L393.8 630Z" fill="#2a2a2a" stroke="#2a2a2a"></path><path d="M393.8 630L393.8 720L492.3 720Z" fill="#222222" stroke="#222222"></path><path d="M196.9 540L295.4 630L295.4 540Z" fill="#252525" stroke="#252525"></path><path d="M393.8 0L295.4 0L295.4 90Z" fill="#232323" stroke="#232323"></path><path d="M295.4 90L196.9 90L196.9 180Z" fill="#212121" stroke="#212121"></path><path d="M787.7 720L886.2 720L886.2 630Z" fill="#262626" stroke="#262626"></path><path d="M295.4 630L393.8 720L393.8 630Z" fill="#2e2e2e" stroke="#2e2e2e"></path><path d="M984.6 630L1083.1 540L984.6 540Z" fill="#212121" stroke="#212121"></path><path d="M1083.1 180L1083.1 90L984.6 90Z" fill="#232323" stroke="#232323"></path><path d="M196.9 450L196.9 540L295.4 540Z" fill="#2d2d2d" stroke="#2d2d2d"></path><path d="M295.4 0L196.9 90L295.4 90Z" fill="#2e2e2e" stroke="#2e2e2e"></path><path d="M886.2 720L984.6 720L984.6 630Z" fill="#222222" stroke="#222222"></path><path d="M984.6 630L1083.1 630L1083.1 540Z" fill="#282828" stroke="#282828"></path><path d="M196.9 630L295.4 720L295.4 630Z" fill="#2d2d2d" stroke="#2d2d2d"></path><path d="M295.4 630L295.4 720L393.8 720Z" fill="#2e2e2e" stroke="#2e2e2e"></path><path d="M1083.1 270L1181.5 270L1083.1 180Z" fill="#232323" stroke="#232323"></path><path d="M1083.1 180L1181.5 180L1083.1 90Z" fill="#262626" stroke="#262626"></path><path d="M1083.1 360L1181.5 270L1083.1 270Z" fill="#282828" stroke="#282828"></path><path d="M1181.5 360L1181.5 270L1083.1 360Z" fill="#2e2e2e" stroke="#2e2e2e"></path><path d="M1181.5 360L1083.1 360L1083.1 450Z" fill="#282828" stroke="#282828"></path><path d="M1181.5 450L1083.1 450L1083.1 540Z" fill="#212121" stroke="#212121"></path><path d="M1181.5 450L1181.5 360L1083.1 450Z" fill="#222222" stroke="#222222"></path><path d="M196.9 360L98.5 360L196.9 450Z" fill="#2e2e2e" stroke="#2e2e2e"></path><path d="M196.9 450L98.5 450L196.9 540Z" fill="#262626" stroke="#262626"></path><path d="M196.9 270L98.5 360L196.9 360Z" fill="#2d2d2d" stroke="#2d2d2d"></path><path d="M98.5 270L98.5 360L196.9 270Z" fill="#212121" stroke="#212121"></path><path d="M98.5 270L196.9 270L196.9 180Z" fill="#282828" stroke="#282828"></path><path d="M98.5 180L98.5 270L196.9 180Z" fill="#212121" stroke="#212121"></path><path d="M984.6 720L1083.1 630L984.6 630Z" fill="#212121" stroke="#212121"></path><path d="M1181.5 90L1083.1 0L1083.1 90Z" fill="#212121" stroke="#212121"></path><path d="M1083.1 90L1083.1 0L984.6 0Z" fill="#2d2d2d" stroke="#2d2d2d"></path><path d="M295.4 0L196.9 0L196.9 90Z" fill="#2b2b2b" stroke="#2b2b2b"></path><path d="M196.9 90L98.5 180L196.9 180Z" fill="#2e2e2e" stroke="#2e2e2e"></path><path d="M98.5 540L196.9 630L196.9 540Z" fill="#2b2b2b" stroke="#2b2b2b"></path><path d="M196.9 540L196.9 630L295.4 630Z" fill="#232323" stroke="#232323"></path><path d="M1181.5 270L1181.5 180L1083.1 180Z" fill="#222222" stroke="#222222"></path><path d="M1181.5 540L1181.5 450L1083.1 540Z" fill="#272727" stroke="#272727"></path><path d="M98.5 90L98.5 180L196.9 90Z" fill="#262626" stroke="#262626"></path><path d="M98.5 360L98.5 450L196.9 450Z" fill="#222222" stroke="#222222"></path><path d="M1083.1 630L1181.5 540L1083.1 540Z" fill="#262626" stroke="#262626"></path><path d="M1181.5 630L1181.5 540L1083.1 630Z" fill="#262626" stroke="#262626"></path><path d="M1181.5 180L1181.5 90L1083.1 90Z" fill="#262626" stroke="#262626"></path><path d="M98.5 450L98.5 540L196.9 540Z" fill="#262626" stroke="#262626"></path><path d="M196.9 0L98.5 90L196.9 90Z" fill="#232323" stroke="#232323"></path><path d="M984.6 720L1083.1 720L1083.1 630Z" fill="#2b2b2b" stroke="#2b2b2b"></path><path d="M98.5 630L196.9 720L196.9 630Z" fill="#2a2a2a" stroke="#2a2a2a"></path><path d="M196.9 630L196.9 720L295.4 720Z" fill="#2d2d2d" stroke="#2d2d2d"></path><path d="M1083.1 720L1181.5 630L1083.1 630Z" fill="#262626" stroke="#262626"></path><path d="M1181.5 90L1181.5 0L1083.1 0Z" fill="#222222" stroke="#222222"></path><path d="M98.5 540L98.5 630L196.9 630Z" fill="#2a2a2a" stroke="#2a2a2a"></path><path d="M196.9 0L98.5 0L98.5 90Z" fill="#222222" stroke="#222222"></path><path d="M1181.5 180L1280 180L1181.5 90Z" fill="#2a2a2a" stroke="#2a2a2a"></path><path d="M1181.5 90L1280 90L1181.5 0Z" fill="#232323" stroke="#232323"></path><path d="M1181.5 270L1280 270L1181.5 180Z" fill="#232323" stroke="#232323"></path><path d="M1181.5 360L1280 270L1181.5 270Z" fill="#2b2b2b" stroke="#2b2b2b"></path><path d="M1280 360L1280 270L1181.5 360Z" fill="#2b2b2b" stroke="#2b2b2b"></path><path d="M1280 360L1181.5 360L1181.5 450Z" fill="#2d2d2d" stroke="#2d2d2d"></path><path d="M1280 360L1181.5 450L1280 450Z" fill="#2e2e2e" stroke="#2e2e2e"></path><path d="M1280 450L1181.5 450L1181.5 540Z" fill="#2e2e2e" stroke="#2e2e2e"></path><path d="M0 180L98.5 180L98.5 90Z" fill="#252525" stroke="#252525"></path><path d="M0 180L0 270L98.5 180Z" fill="#222222" stroke="#222222"></path><path d="M98.5 180L0 270L98.5 270Z" fill="#282828" stroke="#282828"></path><path d="M98.5 270L0 270L98.5 360Z" fill="#272727" stroke="#272727"></path><path d="M98.5 360L0 360L98.5 450Z" fill="#222222" stroke="#222222"></path><path d="M98.5 450L0 450L98.5 540Z" fill="#2d2d2d" stroke="#2d2d2d"></path><path d="M98.5 540L0 540L98.5 630Z" fill="#232323" stroke="#232323"></path><path d="M0 270L0 360L98.5 360Z" fill="#2e2e2e" stroke="#2e2e2e"></path><path d="M1280 540L1280 450L1181.5 540Z" fill="#2d2d2d" stroke="#2d2d2d"></path><path d="M1280 270L1280 180L1181.5 180Z" fill="#252525" stroke="#252525"></path><path d="M0 360L0 450L98.5 450Z" fill="#272727" stroke="#272727"></path><path d="M0 90L0 180L98.5 90Z" fill="#272727" stroke="#272727"></path><path d="M1083.1 720L1181.5 720L1181.5 630Z" fill="#282828" stroke="#282828"></path><path d="M1181.5 630L1280 540L1181.5 540Z" fill="#232323" stroke="#232323"></path><path d="M0 630L98.5 720L98.5 630Z" fill="#212121" stroke="#212121"></path><path d="M98.5 630L98.5 720L196.9 720Z" fill="#2b2b2b" stroke="#2b2b2b"></path><path d="M1280 630L1280 540L1181.5 630Z" fill="#2e2e2e" stroke="#2e2e2e"></path><path d="M1280 180L1280 90L1181.5 90Z" fill="#222222" stroke="#222222"></path><path d="M0 450L0 540L98.5 540Z" fill="#252525" stroke="#252525"></path><path d="M98.5 0L0 90L98.5 90Z" fill="#2b2b2b" stroke="#2b2b2b"></path><path d="M1181.5 720L1280 630L1181.5 630Z" fill="#252525" stroke="#252525"></path><path d="M1280 90L1280 0L1181.5 0Z" fill="#262626" stroke="#262626"></path><path d="M98.5 0L0 0L0 90Z" fill="#2e2e2e" stroke="#2e2e2e"></path><path d="M0 540L0 630L98.5 630Z" fill="#252525" stroke="#252525"></path><path d="M1181.5 720L1280 720L1280 630Z" fill="#2d2d2d" stroke="#2d2d2d"></path><path d="M0 630L0 720L98.5 720Z" fill="#232323" stroke="#232323"></path></g></svg>